# xmcd CD database file
#
# Track frame offsets:
#	150
#	16455
#	38032
#	51478
#	69620
#
# Disc length: 1127 seconds
#
# Revision: 0
# Processed by: cddbd v1.5.2PL0 Copyright (c) Steve Scherf et al.
# Submitted via: CDex 1.51
#
DISCID=41046505
DTITLE=Micha³ Za³êski i Daniel Orlikowski - Ragurek
DYEAR=2008
DGENRE=Jazz
TTITLE0=Take the A'Train
TTITLE1=Autumn Leaves
TTITLE2=Billies Bounce
TTITLE3=Bluebossa
TTITLE4=Girl from Ipanema
EXTD=YEAR: 2008
EXTT0=
EXTT1=
EXTT2=
EXTT3=
EXTT4=
PLAYORDER=
